<svg width="1440" height="349" viewBox="0 0 1440 349" fill="none" xmlns="http://www.w3.org/2000/svg">
<path fill-rule="evenodd" clip-rule="evenodd" d="M1440 349L1418.4 334.458C1396.8 319.917 1352.4 290.833 1309.2 298.104C1266 305.375 1221.6 349 1178.4 334.458C1134 319.917 1090.8 247.208 1047.6 232.667C1003.2 218.125 960 261.75 916.8 254.479C872.4 247.208 829.2 189.042 786 152.688C741.6 116.333 698.4 101.792 654 145.417C610.8 189.042 567.6 290.833 523.2 298.104C480 305.375 436.8 218.125 392.4 159.958C349.2 101.792 306 72.7083 261.6 65.4375C218.4 58.1667 174 72.7083 130.8 101.792C87.6001 130.875 43.2 174.5 21.6001 196.313L7.24792e-05 218.125V1.94311e-05H21.6001C43.2 1.94311e-05 87.6001 1.94311e-05 130.8 1.94311e-05C174 1.94311e-05 218.4 1.94311e-05 261.6 1.94311e-05C306 1.94311e-05 349.2 1.94311e-05 392.4 1.94311e-05C436.8 1.94311e-05 480 1.94311e-05 523.2 1.94311e-05C567.6 1.94311e-05 610.8 1.94311e-05 654 1.94311e-05C698.4 1.94311e-05 741.6 1.94311e-05 786 1.94311e-05C829.2 1.94311e-05 872.4 1.94311e-05 916.8 1.94311e-05C960 1.94311e-05 1003.2 1.94311e-05 1047.6 1.94311e-05C1090.8 1.94311e-05 1134 1.94311e-05 1178.4 1.94311e-05C1221.6 1.94311e-05 1266 1.94311e-05 1309.2 1.94311e-05C1352.4 1.94311e-05 1396.8 1.94311e-05 1418.4 1.94311e-05H1440V349Z" fill="#FFE19B"/>
</svg>
