<?xml version="1.0" standalone="no"?><svg xmlns="http://www.w3.org/2000/svg" viewBox="0 0 1440 320"><path fill="#FFE19B" fill-opacity="1" d="M0,320L16,298.7C32,277,64,235,96,234.7C128,235,160,277,192,298.7C224,320,256,320,288,277.3C320,235,352,149,384,112C416,75,448,85,480,85.3C512,85,544,75,576,69.3C608,64,640,64,672,101.3C704,139,736,213,768,256C800,299,832,309,864,277.3C896,245,928,171,960,117.3C992,64,1024,32,1056,32C1088,32,1120,64,1152,85.3C1184,107,1216,117,1248,117.3C1280,117,1312,107,1344,101.3C1376,96,1408,96,1424,96L1440,96L1440,0L1424,0C1408,0,1376,0,1344,0C1312,0,1280,0,1248,0C1216,0,1184,0,1152,0C1120,0,1088,0,1056,0C1024,0,992,0,960,0C928,0,896,0,864,0C832,0,800,0,768,0C736,0,704,0,672,0C640,0,608,0,576,0C544,0,512,0,480,0C448,0,416,0,384,0C352,0,320,0,288,0C256,0,224,0,192,0C160,0,128,0,96,0C64,0,32,0,16,0L0,0Z"></path></svg>